<?xml version="1.0" encoding="UTF-8" standalone="no"?>
<!-- Created with Inkscape (http://www.inkscape.org/) -->

<svg
   xmlns:dc="http://purl.org/dc/elements/1.1/"
   xmlns:cc="http://creativecommons.org/ns#"
   xmlns:rdf="http://www.w3.org/1999/02/22-rdf-syntax-ns#"
   xmlns:svg="http://www.w3.org/2000/svg"
   xmlns="http://www.w3.org/2000/svg"
   xmlns:sodipodi="http://sodipodi.sourceforge.net/DTD/sodipodi-0.dtd"
   xmlns:inkscape="http://www.inkscape.org/namespaces/inkscape"
   width="64"
   height="64"
   viewBox="0 0 16.933333 16.933333"
   version="1.1"
   id="svg8"
   inkscape:version="0.92.1 r15371"
   sodipodi:docname="flag-black.svg"
   inkscape:export-filename="/home/almih/Workshop/works/miner/aux/flag-black.png"
   inkscape:export-xdpi="96"
   inkscape:export-ydpi="96">
  <defs
     id="defs2" />
  <sodipodi:namedview
     id="base"
     pagecolor="#ffffff"
     bordercolor="#666666"
     borderopacity="1.0"
     inkscape:pageopacity="0.0"
     inkscape:pageshadow="2"
     inkscape:zoom="0.49497474"
     inkscape:cx="-79.067875"
     inkscape:cy="222.40963"
     inkscape:document-units="mm"
     inkscape:current-layer="layer2"
     showgrid="false"
     inkscape:object-nodes="false"
     fit-margin-top="0"
     fit-margin-left="0"
     fit-margin-right="0"
     fit-margin-bottom="0"
     units="px"
     inkscape:window-width="1280"
     inkscape:window-height="960"
     inkscape:window-x="0"
     inkscape:window-y="27"
     inkscape:window-maximized="1" />
  <metadata
     id="metadata5">
    <rdf:RDF>
      <cc:Work
         rdf:about="">
        <dc:format>image/svg+xml</dc:format>
        <dc:type
           rdf:resource="http://purl.org/dc/dcmitype/StillImage" />
        <dc:title />
      </cc:Work>
    </rdf:RDF>
  </metadata>
  <g
     inkscape:groupmode="layer"
     id="layer2"
     inkscape:label="Layer 2"
     style="opacity:1"
     transform="translate(-62.006559,1.6353364)">
    <g
       id="g4607"
       transform="matrix(0.79730259,0,0,0.77820572,12.468275,-109.66)"
       style="stroke-width:1.26952481;fill:#000000;fill-opacity:1">
      <path
         sodipodi:nodetypes="cscsccccssscc"
         inkscape:connector-curvature="0"
         id="path4603"
         d="m 68.649926,152.35728 c 0,0 0.236233,-0.51971 0.755951,-0.61421 0.519716,-0.0945 1.181175,-0.0945 1.795386,0.14175 0.614212,0.23623 1.984375,0.89769 3.165552,1.18117 1.181174,0.28348 2.976562,0.28348 3.827007,0.18899 0.850448,-0.0945 0.992188,-0.33073 0.992188,-0.33073 v -8.55171 c 0,0 -0.566963,-0.0472 -1.086681,0.14174 -0.519716,0.18899 -1.181174,0.47247 -2.362351,0 -1.181177,-0.47247 -2.661895,-1.33073 -3.212798,-1.6064 -0.429854,-0.2151 -1.319152,-0.54977 -1.937128,-0.47247 -1.683179,0.21054 -2.173362,0.8032 -2.173362,0.8032 z"
         style="fill:#000000;fill-opacity:1;stroke:none;stroke-width:0.33589509px;stroke-linecap:butt;stroke-linejoin:miter;stroke-opacity:1" />
      <path
         sodipodi:nodetypes="ccccccccc"
         inkscape:connector-curvature="0"
         id="path4601"
         d="m 69.122395,158.04655 v -14.97731 l 0.903795,-0.5218 v -0.89561 h -3.549628 v 1.55915 h 0.803198 l -0.003,14.82964 z"
         style="fill:#000000;fill-opacity:1;stroke:none;stroke-width:0.33589509px;stroke-linecap:butt;stroke-linejoin:miter;stroke-opacity:1" />
    </g>
  </g>
</svg>
