<?xml version="1.0" encoding="UTF-8" standalone="no"?>
<!-- Created with Inkscape (http://www.inkscape.org/) -->

<svg
   xmlns:dc="http://purl.org/dc/elements/1.1/"
   xmlns:cc="http://creativecommons.org/ns#"
   xmlns:rdf="http://www.w3.org/1999/02/22-rdf-syntax-ns#"
   xmlns:svg="http://www.w3.org/2000/svg"
   xmlns="http://www.w3.org/2000/svg"
   xmlns:sodipodi="http://sodipodi.sourceforge.net/DTD/sodipodi-0.dtd"
   xmlns:inkscape="http://www.inkscape.org/namespaces/inkscape"
   width="64"
   height="64"
   viewBox="0 0 16.933333 16.933333"
   version="1.1"
   id="svg8"
   inkscape:version="0.92.1 r15371"
   sodipodi:docname="mine-black.svg"
   inkscape:export-filename="/home/almih/Workshop/works/miner/aux/mine-black.png"
   inkscape:export-xdpi="96"
   inkscape:export-ydpi="96">
  <defs
     id="defs2" />
  <sodipodi:namedview
     id="base"
     pagecolor="#ffffff"
     bordercolor="#666666"
     borderopacity="1.0"
     inkscape:pageopacity="0.0"
     inkscape:pageshadow="2"
     inkscape:zoom="0.70000001"
     inkscape:cx="-25.402315"
     inkscape:cy="-3.898842"
     inkscape:document-units="mm"
     inkscape:current-layer="layer2"
     showgrid="false"
     inkscape:object-nodes="false"
     fit-margin-top="0"
     fit-margin-left="0"
     fit-margin-right="0"
     fit-margin-bottom="0"
     units="px"
     inkscape:window-width="1280"
     inkscape:window-height="960"
     inkscape:window-x="0"
     inkscape:window-y="27"
     inkscape:window-maximized="1" />
  <metadata
     id="metadata5">
    <rdf:RDF>
      <cc:Work
         rdf:about="">
        <dc:format>image/svg+xml</dc:format>
        <dc:type
           rdf:resource="http://purl.org/dc/dcmitype/StillImage" />
        <dc:title />
      </cc:Work>
    </rdf:RDF>
  </metadata>
  <g
     inkscape:groupmode="layer"
     id="layer2"
     inkscape:label="Layer 2"
     style="opacity:1"
     transform="translate(-62.006559,1.6353364)">
    <path
       style="opacity:1;vector-effect:none;fill:#000000;fill-opacity:1;stroke:none;stroke-width:0.76700002;stroke-linecap:round;stroke-linejoin:miter;stroke-miterlimit:4;stroke-dasharray:none;stroke-dashoffset:0;stroke-opacity:1"
       d="m 70.656433,0.64334682 a 6.4594324,6.3047171 0 0 0 -6.45961,6.30448888 6.4594324,6.3047171 0 0 0 6.45961,6.3048933 6.4594324,6.3047171 0 0 0 6.459201,-6.3048933 6.4594324,6.3047171 0 0 0 -6.459201,-6.30448888 z M 70.399337,1.8972464 A 5.1808643,5.0567731 0 0 1 72.936951,2.407575 L 71.341619,5.58415 A 1.5582546,1.5209316 0 0 0 70.656433,5.4269081 1.5582546,1.5209316 0 0 0 69.979901,5.5793236 L 68.404759,2.3939011 a 5.1808643,5.0567731 0 0 1 1.994578,-0.4966547 z m -1.294149,5.1861131 a 1.5582546,1.5209316 0 0 0 0.656345,1.1091276 L 67.785496,11.203377 A 5.1808643,5.0567731 0 0 1 65.422988,7.4280019 Z m 3.098373,0.036996 3.579608,0.2489316 a 5.1808643,5.0567731 0 0 1 -2.26692,3.8304679 L 71.469756,8.2439591 a 1.5582546,1.5209316 0 0 0 0.733805,-1.1236036 z"
       id="path4585"
       inkscape:connector-curvature="0" />
  </g>
</svg>
